<mxfile host="Electron" agent="Mozilla/5.0 (Windows NT 10.0; Win64; x64) AppleWebKit/537.36 (KHTML, like Gecko) draw.io/26.1.1 Chrome/132.0.6834.210 Electron/34.3.3 Safari/537.36" version="26.1.1">
  <diagram id="C5RBs43oDa-KdzZeNtuy" name="Page-1">
    <mxGraphModel dx="3617" dy="1393" grid="1" gridSize="10" guides="1" tooltips="1" connect="1" arrows="1" fold="1" page="1" pageScale="1" pageWidth="827" pageHeight="1169" math="0" shadow="0">
      <root>
        <mxCell id="WIyWlLk6GJQsqaUBKTNV-0" />
        <mxCell id="WIyWlLk6GJQsqaUBKTNV-1" parent="WIyWlLk6GJQsqaUBKTNV-0" />
        <mxCell id="zkfFHV4jXpPFQw0GAbJ--0" value="Room" style="swimlane;fontStyle=2;align=center;verticalAlign=top;childLayout=stackLayout;horizontal=1;startSize=26;horizontalStack=0;resizeParent=1;resizeLast=0;collapsible=1;marginBottom=0;rounded=0;shadow=0;strokeWidth=1;" parent="WIyWlLk6GJQsqaUBKTNV-1" vertex="1">
          <mxGeometry x="1120" y="978.75" width="390" height="132.5" as="geometry">
            <mxRectangle x="230" y="140" width="160" height="26" as="alternateBounds" />
          </mxGeometry>
        </mxCell>
        <mxCell id="zkfFHV4jXpPFQw0GAbJ--1" value="  +Number: int&#xa;  +Type: string&#xa;  +PricePerNight: decimal&#xa;  +IsAvailable: bool&#xa;&#xa;  +MarkAsBooked(): void&#xa;  +MarkAsAvailable(): void" style="text;align=left;verticalAlign=top;spacingLeft=4;spacingRight=4;overflow=hidden;rotatable=0;points=[[0,0.5],[1,0.5]];portConstraint=eastwest;" parent="zkfFHV4jXpPFQw0GAbJ--0" vertex="1">
          <mxGeometry y="26" width="390" height="104" as="geometry" />
        </mxCell>
        <mxCell id="fhHuR-Hr4zE-yN2VSmlX-7" value="" style="endArrow=none;html=1;rounded=0;exitX=1.003;exitY=0.774;exitDx=0;exitDy=0;exitPerimeter=0;" parent="zkfFHV4jXpPFQw0GAbJ--0" edge="1">
          <mxGeometry width="50" height="50" relative="1" as="geometry">
            <mxPoint x="390" y="91.25" as="sourcePoint" />
            <mxPoint y="91.25" as="targetPoint" />
          </mxGeometry>
        </mxCell>
        <mxCell id="zkfFHV4jXpPFQw0GAbJ--6" value="HotelManager" style="swimlane;fontStyle=0;align=center;verticalAlign=top;childLayout=stackLayout;horizontal=1;startSize=26;horizontalStack=0;resizeParent=1;resizeLast=0;collapsible=1;marginBottom=0;rounded=0;shadow=0;strokeWidth=1;" parent="WIyWlLk6GJQsqaUBKTNV-1" vertex="1">
          <mxGeometry x="-730" y="350" width="720" height="490" as="geometry">
            <mxRectangle x="130" y="380" width="160" height="26" as="alternateBounds" />
          </mxGeometry>
        </mxCell>
        <mxCell id="zkfFHV4jXpPFQw0GAbJ--7" value="  -hotels: List&lt;Hotel&gt;&#xa;  -clients: List&lt;Client&gt;&#xa;  -bookings: List&lt;Booking&gt;&#xa;  -bookingRequests: List&lt;BookingRequest&gt;&#xa;&#xa;  +AddHotel(name: string, city: string, street: string, totalRooms: int)&#xa;  +RemoveHotel(name: string)&#xa;  +GetHotel(name: string): Hotel&#xa;  +GetHotels(): IEnumerable&lt;Hotel&gt;&#xa;  +AddClient(firstName: string, lastName: string)&#xa;  +RemoveClient(firstName: string, lastName: string)&#xa;  +UpdateClient(firstName: string, lastName: string, newFirstName: string, newLastName: string)&#xa;  +GetClient(firstName: string, lastName: string): Client&#xa;  +GetClients(): IEnumerable&lt;Client&gt;&#xa;  +GetClientsSortedByName(): IEnumerable&lt;Client&gt;&#xa;  +GetClientsSortedByLastName(): IEnumerable&lt;Client&gt;&#xa;  +AddBooking(...): void&#xa;  +RemoveBooking(...): void&#xa;  +UpdateBookingRequest(...): void&#xa;  +GetBookings(): IEnumerable&lt;Booking&gt;&#xa;  +GetBookingsByDateRange(startDate: DateTime, endDate: DateTime): IEnumerable&lt;Booking&gt;&#xa;  +GetBooking(clientFirstName: string, clientLastName: string, hotelName: string, roomNumber: int): Booking&#xa;  +GetBookedRooms(hotelName: string): IEnumerable&lt;Room&gt;&#xa;  +GetAvailableRooms(hotelName: string): IEnumerable&lt;Room&gt;&#xa;  +GetBookingCost(...): decimal&#xa;  +GetClientsWithBookings(): IEnumerable&lt;Client&gt;&#xa;  +AddBookingRequest(...): void&#xa;  +RemoveBookingRequest(...): void&#xa;  +UpdateBookingRequest(...): void&#xa;  +GetBookingRequests(startDate: DateTime, endDate: DateTime): IEnumerable&lt;BookingRequest&gt;&#xa;  +SearchHotels(keyword: string): IEnumerable&lt;Hotel&gt;&#xa;  +SearchClients(keyword: string): IEnumerable&lt;Client&gt;" style="text;align=left;verticalAlign=top;spacingLeft=4;spacingRight=4;overflow=hidden;rotatable=0;points=[[0,0.5],[1,0.5]];portConstraint=eastwest;" parent="zkfFHV4jXpPFQw0GAbJ--6" vertex="1">
          <mxGeometry y="26" width="720" height="464" as="geometry" />
        </mxCell>
        <mxCell id="fhHuR-Hr4zE-yN2VSmlX-1" value="" style="endArrow=none;html=1;rounded=0;exitX=0.996;exitY=0.142;exitDx=0;exitDy=0;exitPerimeter=0;entryX=0;entryY=0.141;entryDx=0;entryDy=0;entryPerimeter=0;" parent="zkfFHV4jXpPFQw0GAbJ--6" source="zkfFHV4jXpPFQw0GAbJ--7" target="zkfFHV4jXpPFQw0GAbJ--7" edge="1">
          <mxGeometry width="50" height="50" relative="1" as="geometry">
            <mxPoint x="470" y="230" as="sourcePoint" />
            <mxPoint x="520" y="180" as="targetPoint" />
          </mxGeometry>
        </mxCell>
        <mxCell id="zkfFHV4jXpPFQw0GAbJ--13" value="Hotel" style="swimlane;fontStyle=0;align=center;verticalAlign=top;childLayout=stackLayout;horizontal=1;startSize=26;horizontalStack=0;resizeParent=1;resizeLast=0;collapsible=1;marginBottom=0;rounded=0;shadow=0;strokeWidth=1;" parent="WIyWlLk6GJQsqaUBKTNV-1" vertex="1">
          <mxGeometry x="500" y="985" width="500" height="200" as="geometry">
            <mxRectangle x="340" y="380" width="170" height="26" as="alternateBounds" />
          </mxGeometry>
        </mxCell>
        <mxCell id="fhHuR-Hr4zE-yN2VSmlX-6" value="" style="endArrow=none;html=1;rounded=0;exitX=1.001;exitY=0.358;exitDx=0;exitDy=0;exitPerimeter=0;entryX=-0.001;entryY=0.361;entryDx=0;entryDy=0;entryPerimeter=0;" parent="zkfFHV4jXpPFQw0GAbJ--13" source="zkfFHV4jXpPFQw0GAbJ--14" target="zkfFHV4jXpPFQw0GAbJ--14" edge="1">
          <mxGeometry width="50" height="50" relative="1" as="geometry">
            <mxPoint x="656" y="89.41000000000008" as="sourcePoint" />
            <mxPoint x="-86" y="89.41000000000008" as="targetPoint" />
          </mxGeometry>
        </mxCell>
        <mxCell id="zkfFHV4jXpPFQw0GAbJ--14" value="+Name: string&#xa;  +Address: Address&#xa;  +Rooms: List&lt;Room&gt;&#xa;  +TotalRooms: int&#xa;  +Hotel(name: string, address: Address, totalRooms: int)&#xa;  +UpdateHotel(string newName, string newCity, string newStreet, int newTotalRooms) void&#xa;  +GetBookedRooms(): Room&#xa;  + GetAvailableRooms: Room&#xa;  +AddBookingRequest: Room&#xa;  +RemoveBookingRequest: Room&#xa;  +UpdateBookingRequest(int roomNumber, string newText): void" style="text;align=left;verticalAlign=top;spacingLeft=4;spacingRight=4;overflow=hidden;rotatable=0;points=[[0,0.5],[1,0.5]];portConstraint=eastwest;" parent="zkfFHV4jXpPFQw0GAbJ--13" vertex="1">
          <mxGeometry y="26" width="500" height="174" as="geometry" />
        </mxCell>
        <mxCell id="zkfFHV4jXpPFQw0GAbJ--17" value="Address" style="swimlane;fontStyle=0;align=center;verticalAlign=top;childLayout=stackLayout;horizontal=1;startSize=26;horizontalStack=0;resizeParent=1;resizeLast=0;collapsible=1;marginBottom=0;rounded=0;shadow=0;strokeWidth=1;" parent="WIyWlLk6GJQsqaUBKTNV-1" vertex="1">
          <mxGeometry x="730" y="830" width="212" height="80" as="geometry">
            <mxRectangle x="550" y="140" width="160" height="26" as="alternateBounds" />
          </mxGeometry>
        </mxCell>
        <mxCell id="zkfFHV4jXpPFQw0GAbJ--18" value="+City: string&#xa;  +Street: string&#xa;  +Address(city: string, street: string)" style="text;align=left;verticalAlign=top;spacingLeft=4;spacingRight=4;overflow=hidden;rotatable=0;points=[[0,0.5],[1,0.5]];portConstraint=eastwest;" parent="zkfFHV4jXpPFQw0GAbJ--17" vertex="1">
          <mxGeometry y="26" width="212" height="54" as="geometry" />
        </mxCell>
        <mxCell id="Lk87Gaz-VOcHEqOYZCZI-0" value="Client" style="swimlane;fontStyle=2;align=center;verticalAlign=top;childLayout=stackLayout;horizontal=1;startSize=26;horizontalStack=0;resizeParent=1;resizeLast=0;collapsible=1;marginBottom=0;rounded=0;shadow=0;strokeWidth=1;" parent="WIyWlLk6GJQsqaUBKTNV-1" vertex="1">
          <mxGeometry x="530" y="350" width="440" height="130" as="geometry">
            <mxRectangle x="230" y="140" width="160" height="26" as="alternateBounds" />
          </mxGeometry>
        </mxCell>
        <mxCell id="fhHuR-Hr4zE-yN2VSmlX-5" value="" style="endArrow=none;html=1;rounded=0;exitX=1.003;exitY=0.425;exitDx=0;exitDy=0;exitPerimeter=0;entryX=0;entryY=0.141;entryDx=0;entryDy=0;entryPerimeter=0;" parent="Lk87Gaz-VOcHEqOYZCZI-0" source="Lk87Gaz-VOcHEqOYZCZI-1" edge="1">
          <mxGeometry width="50" height="50" relative="1" as="geometry">
            <mxPoint x="742" y="70" as="sourcePoint" />
            <mxPoint y="70" as="targetPoint" />
          </mxGeometry>
        </mxCell>
        <mxCell id="Lk87Gaz-VOcHEqOYZCZI-1" value="  +FirstName: string &#xa;  +LastName: string &#xa;&#xa;  +Client(firstName: string, lastName: string, email: string, phoneNumber: string) &#xa;  + UpdateName(string newFirstName, string newLastName) void" style="text;align=left;verticalAlign=top;spacingLeft=4;spacingRight=4;overflow=hidden;rotatable=0;points=[[0,0.5],[1,0.5]];portConstraint=eastwest;" parent="Lk87Gaz-VOcHEqOYZCZI-0" vertex="1">
          <mxGeometry y="26" width="440" height="104" as="geometry" />
        </mxCell>
        <mxCell id="Lk87Gaz-VOcHEqOYZCZI-2" value="BookingRequest" style="swimlane;fontStyle=2;align=center;verticalAlign=top;childLayout=stackLayout;horizontal=1;startSize=26;horizontalStack=0;resizeParent=1;resizeLast=0;collapsible=1;marginBottom=0;rounded=0;shadow=0;strokeWidth=1;" parent="WIyWlLk6GJQsqaUBKTNV-1" vertex="1">
          <mxGeometry x="10" y="90" width="653" height="140" as="geometry">
            <mxRectangle x="230" y="140" width="160" height="26" as="alternateBounds" />
          </mxGeometry>
        </mxCell>
        <mxCell id="Lk87Gaz-VOcHEqOYZCZI-3" value="+HotelName: string&#xa;  +RoomNumber: int&#xa;  +RequestText: string&#xa;  +StartDate: DateTime&#xa;  +EndDate: DateTime&#xa;  +BookingRequest(hotelName: string, roomNumber: int, requestText: string, startDate: DateTime, endDate: DateTime)&#xa;  +UpdateRequestText(string newText): void" style="text;align=left;verticalAlign=top;spacingLeft=4;spacingRight=4;overflow=hidden;rotatable=0;points=[[0,0.5],[1,0.5]];portConstraint=eastwest;" parent="Lk87Gaz-VOcHEqOYZCZI-2" vertex="1">
          <mxGeometry y="26" width="653" height="114" as="geometry" />
        </mxCell>
        <mxCell id="Lk87Gaz-VOcHEqOYZCZI-4" value="Booking" style="swimlane;fontStyle=2;align=center;verticalAlign=top;childLayout=stackLayout;horizontal=1;startSize=26;horizontalStack=0;resizeParent=1;resizeLast=0;collapsible=1;marginBottom=0;rounded=0;shadow=0;strokeWidth=1;" parent="WIyWlLk6GJQsqaUBKTNV-1" vertex="1">
          <mxGeometry x="87" y="585" width="740" height="160" as="geometry">
            <mxRectangle x="230" y="140" width="160" height="26" as="alternateBounds" />
          </mxGeometry>
        </mxCell>
        <mxCell id="Lk87Gaz-VOcHEqOYZCZI-5" value="+Client: Client&#xa;  +Hotel: Hotel&#xa;  +Room: Room&#xa;  +StartDate: DateTime&#xa;  +EndDate: DateTime&#xa;  +PricePerNight: decimal&#xa;  +RequestText: string&#xa;  +Booking(client: Client, hotel: Hotel, room: Room, startDate: DateTime, endDate: DateTime, pricePerNight: decimal, requestText: string)&#xa;  +CalculateTotalCost(): decimal" style="text;align=left;verticalAlign=top;spacingLeft=4;spacingRight=4;overflow=hidden;rotatable=0;points=[[0,0.5],[1,0.5]];portConstraint=eastwest;" parent="Lk87Gaz-VOcHEqOYZCZI-4" vertex="1">
          <mxGeometry y="26" width="740" height="134" as="geometry" />
        </mxCell>
        <mxCell id="fhHuR-Hr4zE-yN2VSmlX-2" value="" style="endArrow=none;html=1;rounded=0;exitX=1.003;exitY=0.774;exitDx=0;exitDy=0;exitPerimeter=0;entryX=0;entryY=0.141;entryDx=0;entryDy=0;entryPerimeter=0;" parent="Lk87Gaz-VOcHEqOYZCZI-4" source="Lk87Gaz-VOcHEqOYZCZI-5" edge="1">
          <mxGeometry width="50" height="50" relative="1" as="geometry">
            <mxPoint x="717" y="131" as="sourcePoint" />
            <mxPoint y="130" as="targetPoint" />
          </mxGeometry>
        </mxCell>
        <mxCell id="Lk87Gaz-VOcHEqOYZCZI-8" value="" style="ellipse;whiteSpace=wrap;html=1;aspect=fixed;" parent="WIyWlLk6GJQsqaUBKTNV-1" vertex="1">
          <mxGeometry x="-470" y="140" width="40" height="40" as="geometry" />
        </mxCell>
        <mxCell id="Lk87Gaz-VOcHEqOYZCZI-9" value="IHotelManager" style="text;html=1;align=center;verticalAlign=middle;whiteSpace=wrap;rounded=0;" parent="WIyWlLk6GJQsqaUBKTNV-1" vertex="1">
          <mxGeometry x="-480" y="180" width="60" height="30" as="geometry" />
        </mxCell>
        <mxCell id="Lk87Gaz-VOcHEqOYZCZI-11" value="" style="endArrow=classic;html=1;rounded=0;exitX=0.5;exitY=0;exitDx=0;exitDy=0;entryX=0.5;entryY=0;entryDx=0;entryDy=0;" parent="WIyWlLk6GJQsqaUBKTNV-1" source="Lk87Gaz-VOcHEqOYZCZI-9" target="zkfFHV4jXpPFQw0GAbJ--6" edge="1">
          <mxGeometry width="50" height="50" relative="1" as="geometry">
            <mxPoint x="-440" y="350" as="sourcePoint" />
            <mxPoint x="-390" y="300" as="targetPoint" />
          </mxGeometry>
        </mxCell>
        <mxCell id="Lk87Gaz-VOcHEqOYZCZI-12" value="" style="endArrow=diamondThin;endFill=1;endSize=24;html=1;rounded=0;entryX=0.17;entryY=0.985;entryDx=0;entryDy=0;exitX=0.5;exitY=0;exitDx=0;exitDy=0;entryPerimeter=0;" parent="WIyWlLk6GJQsqaUBKTNV-1" source="zkfFHV4jXpPFQw0GAbJ--13" target="zkfFHV4jXpPFQw0GAbJ--18" edge="1">
          <mxGeometry width="160" relative="1" as="geometry">
            <mxPoint x="410" y="1305" as="sourcePoint" />
            <mxPoint x="570" y="1305" as="targetPoint" />
          </mxGeometry>
        </mxCell>
        <mxCell id="Lk87Gaz-VOcHEqOYZCZI-14" value="" style="endArrow=diamondThin;endFill=1;endSize=24;html=1;rounded=0;exitX=1;exitY=0.5;exitDx=0;exitDy=0;entryX=0;entryY=0.5;entryDx=0;entryDy=0;" parent="WIyWlLk6GJQsqaUBKTNV-1" source="zkfFHV4jXpPFQw0GAbJ--14" target="zkfFHV4jXpPFQw0GAbJ--1" edge="1">
          <mxGeometry width="160" relative="1" as="geometry">
            <mxPoint x="1190" y="1215" as="sourcePoint" />
            <mxPoint x="1350" y="1215" as="targetPoint" />
          </mxGeometry>
        </mxCell>
        <mxCell id="Lk87Gaz-VOcHEqOYZCZI-15" value="1" style="text;html=1;align=center;verticalAlign=middle;resizable=0;points=[];autosize=1;strokeColor=none;fillColor=none;" parent="WIyWlLk6GJQsqaUBKTNV-1" vertex="1">
          <mxGeometry x="1000" y="1060" width="30" height="30" as="geometry" />
        </mxCell>
        <mxCell id="Lk87Gaz-VOcHEqOYZCZI-16" value="n" style="text;html=1;align=center;verticalAlign=middle;resizable=0;points=[];autosize=1;strokeColor=none;fillColor=none;" parent="WIyWlLk6GJQsqaUBKTNV-1" vertex="1">
          <mxGeometry x="1090" y="1030" width="30" height="30" as="geometry" />
        </mxCell>
        <mxCell id="Lk87Gaz-VOcHEqOYZCZI-20" value="" style="endArrow=diamondThin;endFill=0;endSize=24;html=1;rounded=0;exitX=0.998;exitY=0.264;exitDx=0;exitDy=0;exitPerimeter=0;entryX=0.141;entryY=0.002;entryDx=0;entryDy=0;entryPerimeter=0;" parent="WIyWlLk6GJQsqaUBKTNV-1" source="zkfFHV4jXpPFQw0GAbJ--7" target="Lk87Gaz-VOcHEqOYZCZI-4" edge="1">
          <mxGeometry width="160" relative="1" as="geometry">
            <mxPoint x="-110" y="760" as="sourcePoint" />
            <mxPoint x="50" y="760" as="targetPoint" />
          </mxGeometry>
        </mxCell>
        <mxCell id="Lk87Gaz-VOcHEqOYZCZI-21" value="" style="endArrow=diamondThin;endFill=0;endSize=24;html=1;rounded=0;entryX=-0.007;entryY=0.136;entryDx=0;entryDy=0;entryPerimeter=0;exitX=1.001;exitY=0.146;exitDx=0;exitDy=0;exitPerimeter=0;" parent="WIyWlLk6GJQsqaUBKTNV-1" source="zkfFHV4jXpPFQw0GAbJ--7" target="Lk87Gaz-VOcHEqOYZCZI-1" edge="1">
          <mxGeometry width="160" relative="1" as="geometry">
            <mxPoint x="20" y="350" as="sourcePoint" />
            <mxPoint x="235" y="424" as="targetPoint" />
          </mxGeometry>
        </mxCell>
        <mxCell id="Lk87Gaz-VOcHEqOYZCZI-22" value="" style="endArrow=diamondThin;endFill=0;endSize=24;html=1;rounded=0;exitX=1.007;exitY=0.893;exitDx=0;exitDy=0;exitPerimeter=0;entryX=0;entryY=0.5;entryDx=0;entryDy=0;" parent="WIyWlLk6GJQsqaUBKTNV-1" source="zkfFHV4jXpPFQw0GAbJ--7" target="zkfFHV4jXpPFQw0GAbJ--14" edge="1">
          <mxGeometry width="160" relative="1" as="geometry">
            <mxPoint x="-1" y="506" as="sourcePoint" />
            <mxPoint x="214" y="580" as="targetPoint" />
          </mxGeometry>
        </mxCell>
        <mxCell id="Lk87Gaz-VOcHEqOYZCZI-23" value="" style="endArrow=diamondThin;endFill=0;endSize=24;html=1;rounded=0;exitX=0.75;exitY=0;exitDx=0;exitDy=0;entryX=0;entryY=0.5;entryDx=0;entryDy=0;" parent="WIyWlLk6GJQsqaUBKTNV-1" source="zkfFHV4jXpPFQw0GAbJ--6" target="Lk87Gaz-VOcHEqOYZCZI-3" edge="1">
          <mxGeometry width="160" relative="1" as="geometry">
            <mxPoint x="140" y="560" as="sourcePoint" />
            <mxPoint x="300" y="560" as="targetPoint" />
          </mxGeometry>
        </mxCell>
        <mxCell id="w5O6BG4SJBUIX4J7WL7p-1" value="" style="endArrow=none;html=1;rounded=0;exitX=0.25;exitY=0;exitDx=0;exitDy=0;entryX=0;entryY=0.5;entryDx=0;entryDy=0;" edge="1" parent="WIyWlLk6GJQsqaUBKTNV-1" source="Lk87Gaz-VOcHEqOYZCZI-4" target="Lk87Gaz-VOcHEqOYZCZI-1">
          <mxGeometry width="50" height="50" relative="1" as="geometry">
            <mxPoint x="770" y="740" as="sourcePoint" />
            <mxPoint x="820" y="690" as="targetPoint" />
          </mxGeometry>
        </mxCell>
        <mxCell id="w5O6BG4SJBUIX4J7WL7p-2" value="" style="endArrow=none;html=1;rounded=0;exitX=0.288;exitY=1.015;exitDx=0;exitDy=0;exitPerimeter=0;" edge="1" parent="WIyWlLk6GJQsqaUBKTNV-1" source="Lk87Gaz-VOcHEqOYZCZI-5" target="zkfFHV4jXpPFQw0GAbJ--13">
          <mxGeometry width="50" height="50" relative="1" as="geometry">
            <mxPoint x="770" y="740" as="sourcePoint" />
            <mxPoint x="820" y="690" as="targetPoint" />
          </mxGeometry>
        </mxCell>
        <mxCell id="w5O6BG4SJBUIX4J7WL7p-3" value="" style="endArrow=none;html=1;rounded=0;exitX=1;exitY=0.5;exitDx=0;exitDy=0;entryX=0.5;entryY=0;entryDx=0;entryDy=0;" edge="1" parent="WIyWlLk6GJQsqaUBKTNV-1" source="Lk87Gaz-VOcHEqOYZCZI-5" target="zkfFHV4jXpPFQw0GAbJ--0">
          <mxGeometry width="50" height="50" relative="1" as="geometry">
            <mxPoint x="770" y="740" as="sourcePoint" />
            <mxPoint x="820" y="690" as="targetPoint" />
          </mxGeometry>
        </mxCell>
      </root>
    </mxGraphModel>
  </diagram>
</mxfile>
